<mxfile host="app.diagrams.net" modified="2021-05-20T08:02:23.648Z" agent="5.0 (Windows NT 10.0; Win64; x64) AppleWebKit/537.36 (KHTML, like Gecko) Chrome/90.0.4430.93 Safari/537.36 OPR/76.0.4017.123" etag="sezVHzjUgdUHbJk-yMPz" version="14.6.13" type="github">
  <diagram id="Ui0-9yiIc73Z3Jqmeo89" name="Page-1">
    <mxGraphModel dx="1848" dy="548" grid="1" gridSize="10" guides="1" tooltips="1" connect="1" arrows="1" fold="1" page="1" pageScale="1" pageWidth="850" pageHeight="1100" math="0" shadow="0">
      <root>
        <mxCell id="0" />
        <mxCell id="1" parent="0" />
        <mxCell id="4XsNZCwpFAy48UcLujAn-5" value="&lt;p style=&quot;margin: 0px ; margin-top: 4px ; text-align: center&quot;&gt;&lt;br&gt;&lt;b&gt;&lt;i&gt;Contact&lt;/i&gt;&lt;/b&gt;&lt;/p&gt;&lt;hr size=&quot;1&quot;&gt;&lt;p style=&quot;margin: 0px ; margin-left: 4px&quot;&gt;&amp;nbsp;#nume : const char*&lt;br&gt;&lt;/p&gt;&lt;hr size=&quot;1&quot;&gt;&lt;p style=&quot;margin: 0px ; margin-left: 4px&quot;&gt;&lt;br&gt;&lt;/p&gt;" style="verticalAlign=top;align=left;overflow=fill;fontSize=12;fontFamily=Helvetica;html=1;" parent="1" vertex="1">
          <mxGeometry x="250" y="35" width="190" height="85" as="geometry" />
        </mxCell>
        <mxCell id="4XsNZCwpFAy48UcLujAn-6" value="Prieten" style="swimlane;fontStyle=1;childLayout=stackLayout;horizontal=1;startSize=26;fillColor=none;horizontalStack=0;resizeParent=1;resizeParentMax=0;resizeLast=0;collapsible=1;marginBottom=0;" parent="1" vertex="1">
          <mxGeometry x="10" y="230" width="160" height="104" as="geometry">
            <mxRectangle x="90" y="210" width="70" height="26" as="alternateBounds" />
          </mxGeometry>
        </mxCell>
        <mxCell id="4XsNZCwpFAy48UcLujAn-7" value="- data de nastere: int" style="text;strokeColor=none;fillColor=none;align=left;verticalAlign=top;spacingLeft=4;spacingRight=4;overflow=hidden;rotatable=0;points=[[0,0.5],[1,0.5]];portConstraint=eastwest;" parent="4XsNZCwpFAy48UcLujAn-6" vertex="1">
          <mxGeometry y="26" width="160" height="26" as="geometry" />
        </mxCell>
        <mxCell id="4XsNZCwpFAy48UcLujAn-8" value="- numarul de telefon: int" style="text;strokeColor=none;fillColor=none;align=left;verticalAlign=top;spacingLeft=4;spacingRight=4;overflow=hidden;rotatable=0;points=[[0,0.5],[1,0.5]];portConstraint=eastwest;" parent="4XsNZCwpFAy48UcLujAn-6" vertex="1">
          <mxGeometry y="52" width="160" height="26" as="geometry" />
        </mxCell>
        <mxCell id="4XsNZCwpFAy48UcLujAn-9" value="- adresa: const char*" style="text;strokeColor=none;fillColor=none;align=left;verticalAlign=top;spacingLeft=4;spacingRight=4;overflow=hidden;rotatable=0;points=[[0,0.5],[1,0.5]];portConstraint=eastwest;" parent="4XsNZCwpFAy48UcLujAn-6" vertex="1">
          <mxGeometry y="78" width="160" height="26" as="geometry" />
        </mxCell>
        <mxCell id="4XsNZCwpFAy48UcLujAn-12" value="&lt;p style=&quot;margin: 0px ; margin-top: 4px ; text-align: center&quot;&gt;&lt;b&gt;Cunoscut&lt;/b&gt;&lt;/p&gt;&lt;hr size=&quot;1&quot;&gt;&lt;p style=&quot;margin: 0px ; margin-left: 4px&quot;&gt;- numarul de telefont: int&lt;/p&gt;&lt;p style=&quot;margin: 0px ; margin-left: 4px&quot;&gt;&lt;br&gt;&lt;/p&gt;" style="verticalAlign=top;align=left;overflow=fill;fontSize=12;fontFamily=Helvetica;html=1;" parent="1" vertex="1">
          <mxGeometry x="210" y="257" width="170" height="50" as="geometry" />
        </mxCell>
        <mxCell id="4XsNZCwpFAy48UcLujAn-13" value="&lt;p style=&quot;margin: 0px ; margin-top: 4px ; text-align: center&quot;&gt;&lt;b&gt;Coleg&lt;/b&gt;&lt;/p&gt;&lt;hr size=&quot;1&quot;&gt;&lt;p style=&quot;margin: 0px ; margin-left: 4px&quot;&gt;- numarul de telefon: int&lt;/p&gt;&lt;p style=&quot;margin: 0px ; margin-left: 4px&quot;&gt;- firma: const char*&lt;/p&gt;&lt;p style=&quot;margin: 0px ; margin-left: 4px&quot;&gt;-adresa: const char*&lt;/p&gt;&lt;p style=&quot;margin: 0px ; margin-left: 4px&quot;&gt;&lt;br&gt;&lt;/p&gt;" style="verticalAlign=top;align=left;overflow=fill;fontSize=12;fontFamily=Helvetica;html=1;" parent="1" vertex="1">
          <mxGeometry x="460" y="223" width="200" height="87" as="geometry" />
        </mxCell>
        <mxCell id="4XsNZCwpFAy48UcLujAn-15" value="&lt;p style=&quot;margin: 0px ; margin-top: 4px ; text-align: center&quot;&gt;&lt;b&gt;Agenda&lt;/b&gt;&lt;/p&gt;&lt;hr size=&quot;1&quot;&gt;&lt;p style=&quot;margin: 0px ; margin-left: 4px&quot;&gt;&lt;br&gt;&lt;/p&gt;&lt;hr size=&quot;1&quot;&gt;&lt;p style=&quot;margin: 0px ; margin-left: 4px&quot;&gt;+ FindContact(const char*): bool&lt;/p&gt;&lt;p style=&quot;margin: 0px ; margin-left: 4px&quot;&gt;+PrintFriendList():void&lt;/p&gt;&lt;p style=&quot;margin: 0px ; margin-left: 4px&quot;&gt;+DeleteContact(const char*):Agenda&amp;amp;&lt;/p&gt;&lt;p style=&quot;margin: 0px ; margin-left: 4px&quot;&gt;+AddContact(Contact *obj):Agenda&amp;amp;&lt;/p&gt;&lt;p style=&quot;margin: 0px ; margin-left: 4px&quot;&gt;&lt;br&gt;&lt;/p&gt;&lt;p style=&quot;margin: 0px ; margin-left: 4px&quot;&gt;&lt;br&gt;&lt;/p&gt;&lt;p style=&quot;margin: 0px ; margin-left: 4px&quot;&gt;&lt;br&gt;&lt;/p&gt;" style="verticalAlign=top;align=left;overflow=fill;fontSize=12;fontFamily=Helvetica;html=1;" parent="1" vertex="1">
          <mxGeometry x="570" y="10" width="260" height="150" as="geometry" />
        </mxCell>
        <mxCell id="4XsNZCwpFAy48UcLujAn-20" value="" style="endArrow=open;html=1;endSize=12;startArrow=diamondThin;startSize=14;startFill=0;edgeStyle=orthogonalEdgeStyle;align=left;verticalAlign=bottom;entryX=1;entryY=0.5;entryDx=0;entryDy=0;" parent="1" target="4XsNZCwpFAy48UcLujAn-5" edge="1">
          <mxGeometry x="-0.4299" y="51" relative="1" as="geometry">
            <mxPoint x="570" y="65" as="sourcePoint" />
            <mxPoint x="390" y="69.5" as="targetPoint" />
            <Array as="points" />
            <mxPoint as="offset" />
          </mxGeometry>
        </mxCell>
        <mxCell id="4XsNZCwpFAy48UcLujAn-21" value="" style="endArrow=block;endFill=1;html=1;edgeStyle=orthogonalEdgeStyle;align=left;verticalAlign=top;exitX=0.438;exitY=0;exitDx=0;exitDy=0;exitPerimeter=0;entryX=0.404;entryY=1.017;entryDx=0;entryDy=0;entryPerimeter=0;" parent="1" source="4XsNZCwpFAy48UcLujAn-6" target="4XsNZCwpFAy48UcLujAn-5" edge="1">
          <mxGeometry x="-0.8138" y="-10" relative="1" as="geometry">
            <mxPoint x="80" y="180" as="sourcePoint" />
            <mxPoint x="240" y="180" as="targetPoint" />
            <mxPoint as="offset" />
          </mxGeometry>
        </mxCell>
        <mxCell id="4XsNZCwpFAy48UcLujAn-23" value="" style="endArrow=block;endFill=1;html=1;edgeStyle=orthogonalEdgeStyle;align=left;verticalAlign=top;exitX=0.5;exitY=0;exitDx=0;exitDy=0;entryX=0.699;entryY=1.053;entryDx=0;entryDy=0;entryPerimeter=0;" parent="1" source="4XsNZCwpFAy48UcLujAn-12" target="4XsNZCwpFAy48UcLujAn-5" edge="1">
          <mxGeometry x="-0.4073" y="-47" relative="1" as="geometry">
            <mxPoint x="330" y="160" as="sourcePoint" />
            <mxPoint x="490" y="160" as="targetPoint" />
            <Array as="points">
              <mxPoint x="383" y="257" />
            </Array>
            <mxPoint as="offset" />
          </mxGeometry>
        </mxCell>
        <mxCell id="4XsNZCwpFAy48UcLujAn-25" value="" style="endArrow=block;endFill=1;html=1;edgeStyle=orthogonalEdgeStyle;align=left;verticalAlign=top;entryX=0.893;entryY=1.027;entryDx=0;entryDy=0;entryPerimeter=0;exitX=0.5;exitY=0;exitDx=0;exitDy=0;" parent="1" source="4XsNZCwpFAy48UcLujAn-13" target="4XsNZCwpFAy48UcLujAn-5" edge="1">
          <mxGeometry x="-0.8175" y="-30" relative="1" as="geometry">
            <mxPoint x="520" y="200" as="sourcePoint" />
            <mxPoint x="410" y="200" as="targetPoint" />
            <mxPoint as="offset" />
          </mxGeometry>
        </mxCell>
        <mxCell id="4XsNZCwpFAy48UcLujAn-28" value="*" style="text;html=1;align=center;verticalAlign=middle;resizable=0;points=[];autosize=1;strokeColor=none;" parent="1" vertex="1">
          <mxGeometry x="450" y="75" width="20" height="20" as="geometry" />
        </mxCell>
        <mxCell id="4XsNZCwpFAy48UcLujAn-30" value="contacte" style="text;html=1;align=center;verticalAlign=middle;resizable=0;points=[];autosize=1;strokeColor=none;" parent="1" vertex="1">
          <mxGeometry x="440" y="40" width="60" height="20" as="geometry" />
        </mxCell>
        <mxCell id="1b1aqfyQ7OxpXS8MbRCP-4" value="" style="endArrow=block;endFill=1;html=1;edgeStyle=orthogonalEdgeStyle;align=left;verticalAlign=top;entryX=0;entryY=0.5;entryDx=0;entryDy=0;" parent="1" target="4XsNZCwpFAy48UcLujAn-5" edge="1">
          <mxGeometry x="-1" relative="1" as="geometry">
            <mxPoint x="130" y="65" as="sourcePoint" />
            <mxPoint x="190" y="70" as="targetPoint" />
            <Array as="points">
              <mxPoint x="170" y="61" />
              <mxPoint x="170" y="65" />
            </Array>
          </mxGeometry>
        </mxCell>
        <mxCell id="1b1aqfyQ7OxpXS8MbRCP-10" value="&lt;p style=&quot;margin: 0px ; margin-top: 4px ; text-align: center ; text-decoration: underline&quot;&gt;&lt;b&gt;Enumeration&lt;/b&gt;&lt;/p&gt;&lt;hr&gt;&lt;p style=&quot;margin: 0px ; margin-left: 8px&quot;&gt;Prieten&lt;br&gt;Cunoscut&lt;br&gt;Coleg&lt;/p&gt;" style="verticalAlign=top;align=left;overflow=fill;fontSize=12;fontFamily=Helvetica;html=1;" parent="1" vertex="1">
          <mxGeometry x="-30" y="30" width="160" height="90" as="geometry" />
        </mxCell>
        <mxCell id="1b1aqfyQ7OxpXS8MbRCP-11" value="" style="html=1;" parent="1" vertex="1">
          <mxGeometry x="210" y="307" width="170" height="23" as="geometry" />
        </mxCell>
        <mxCell id="1b1aqfyQ7OxpXS8MbRCP-12" value="" style="html=1;" parent="1" vertex="1">
          <mxGeometry x="10" y="334" width="160" height="26" as="geometry" />
        </mxCell>
        <mxCell id="1b1aqfyQ7OxpXS8MbRCP-13" value="" style="html=1;" parent="1" vertex="1">
          <mxGeometry x="460" y="310" width="200" height="20" as="geometry" />
        </mxCell>
      </root>
    </mxGraphModel>
  </diagram>
</mxfile>
